<svg width="40" height="40" viewBox="0 0 40 40" fill="none" xmlns="http://www.w3.org/2000/svg">
<g clip-path="url(#clip0)">
<path d="M20 -0.05C8.94458 -0.05 -0.05 8.94458 -0.05 20C-0.05 31.0553 8.94458 40.0499 20 40.0499C31.0553 40.0499 40.0499 31.0553 40.0499 20C40.0499 8.94458 31.0554 -0.05 20 -0.05ZM20 38.2108C9.95801 38.2108 1.7891 30.0419 1.7891 20C1.7891 9.95801 9.95801 1.7891 20 1.7891C30.0419 1.7891 38.2108 9.95801 38.2108 20C38.2108 30.0419 30.0419 38.2108 20 38.2108Z" fill="#909090" stroke="#909090" stroke-width="0.1"/>
<path d="M20.0016 19.7723C12.4571 19.7723 6.3189 25.9105 6.3189 33.455C6.3189 34.0615 6.81112 34.5537 7.4176 34.5537C8.02408 34.5537 8.5163 34.0614 8.5163 33.4549C8.5163 27.1213 13.668 21.9696 20.0016 21.9696C26.3352 21.9696 31.4869 27.1213 31.4869 33.4549C31.4869 34.0614 31.9791 34.5536 32.5856 34.5536C33.1921 34.5536 33.6843 34.0614 33.6843 33.4549C33.6843 25.9105 27.5461 19.7723 20.0016 19.7723Z" fill="#909090" stroke="#909090" stroke-width="0.1"/>
<path d="M20.0005 6.35024C15.9251 6.35024 12.6098 9.66541 12.6098 13.741C12.6098 17.8165 15.925 21.1317 20.0005 21.1317C24.076 21.1317 27.3912 17.8164 27.3912 13.741C27.3912 9.66551 24.076 6.35024 20.0005 6.35024ZM20.0005 18.9343C17.138 18.9343 14.8072 16.6034 14.8072 13.741C14.8072 10.8785 17.138 8.54764 20.0005 8.54764C22.863 8.54764 25.1938 10.8785 25.1938 13.741C25.1938 16.6034 22.8631 18.9343 20.0005 18.9343Z" fill="#909090" stroke="#909090" stroke-width="0.1"/>
</g>
<defs>
<clipPath id="clip0">
<rect width="40" height="40" fill="white"/>
</clipPath>
</defs>
</svg>